<svg xmlns="http://www.w3.org/2000/svg" xml:space="preserve" viewBox="0 0 369 235.9">
  <style>
    .st1{fill:#fff}.st2{fill:#e41e2e}
  </style>
  <g id="Layer_2">
    <path d="M0 118h369v118H0z" style="fill:#60b647"/>
    <path d="M0 0h369v118H0z" class="st1"/>
  </g>
  <g id="Layer_3">
    <path d="M328 29q-1-3-3-2l-3 1q-9 21-23 37l-1 3q2 3 3 2l10-2-1 3-2 7q-9-4-15-4c-12 0-21 10-21 19 0 6 4 15 16 16l-16 1h-3l-26-4q5-7 14-9l2-2v1h1l2-1 1-3v-5q1-14 13-23l1-3h2l2-1 1-3-2-9q0-14 11-23l1-3-3-2c-39 1-89 28-113 53l-1 2q0 11-9 23-6 6-13 5h-2l-3-2-4-5 3-1 7 2 4-1v-3q-3-10-16-10v-1l12 1 4-1v-3q-4-9-13-10v-2h2l7 1h4v-4q-2-6-11-9l1-2 6 1h4v-4q-2-6-10-9l-1-6q10-5 9-19l-2-3h-1l-2 1-7 2q-6 2-11 6h-16c-6 0-19 0-21 7q-26 1-29 13l1 3 2 1h8l-18 2-3 2 2 4 27 10h1l2-1v-4h1v1q2 9 6 15l3 1 2-1q3-4 9-7c-9 15-18 39-17 60q-10-4-24-21v-2l8-13 1-3 2-3v-9q-2-4-6-7h-1l-3 1v8l-1 2-1-3v-4q-1-10-11-11l-2 1-2 2q-1 1 1 3l2 4v2l-2 1a12 12 0 0 0-14-3l-2 3 2 3q3 0 4 3v1l-1 7 5 14v7l-5 10q-1 4 1 7l-1 1-4 3-2 2q0 3 2 3l6 2a12 12 0 0 0 11-9q2-1 2-3l2-4q27 33 26 45l-1 3q-2 0-2 3t2 2h4q6 0 9-3t2-8l9-2q-7 21-14 28l-1 1h-1l-12-7h-4l-3-2-4-1q-8 0-11 8l1 3 2 1h1l3-1h2l1 1h-4q-5 0-9 4-3 5-2 9l2 3h1l2-1 4-3h2l2 2-4 5v9l3 2q3 0 3-2l3-4h2l7 1 13-5 8-1 15 3h1q3 0 5-3h1l1 1 4 2 2 2h1l2-2q2-5-1-9-3-5-8-6h-3l-3-1h-5q8-19 20-27 3 2 1 8v4l2 1h1c1-1 9-3 11-9l1-6 25-8q2 7 7 13 7 6 15 7l-11 7h-3l-12-8h-4l-3-2a12 12 0 0 0-15 6v3l2 1h2l2-1 2 1h2l-3 1h-3q-6 1-9 4-3 4-2 9l2 3h1l2-1 4-3h2l1 2-3 5v9l3 2 3-2 3-4h2l6 1 13-4 6-1h4l12 2h1q3 0 5-2l2 1q2 0 3 3l3 1q3 0 3-2 2-4-1-9-3-6-7-6h-2c9-5 19-14 22-21h2q3 0 5 4l2 2-1 2 1 3h8l1 1-2 1h-4q-5 0-8 4t-3 9l2 2 1 1 2-2 5-2h1l2 2-4 5q-2 5 1 9l2 2h1l2-2 3-4h2l7 1 14-5 4-1 2 1 14 2h1q3 1 6-2h1l4 3 2 2h1l2-2q2-4-1-9-4-6-7-6h-4l-2-1-4-1c3-10 7-26 5-38l3-1 7 1 1 1 2-1v-3c-4-12-14-14-22-16q-7-1-10-3 42-12 42-36 0-9-4-15l1-1 1-1 4-11v-3l7 8 3 1 1-1 2-2q-2-24-8-47M89 49l1-1v1zm13-1 3-2 5 2zm173 142q0 1 0 0l-13-8-3-1-3-2a12 12 0 0 0-12 1q2-5 0-9-3-6-14-8-9-3-11-7 0-4 4-7l1-3h1q23 20 44 20l7-1q3 14-1 24m17-95-4-2 3-2 6 3z" class="st1"/>
    <path d="M229 119h5q-19-23-40-38c7 13 13 33 16 50q7-11 19-12m45-58q-53 2-79 14 33 1 65 18v-6q0-16 14-26" class="st2"/>
    <path d="M256 94q-30-15-61-16 23 15 41 40 2-19 20-24" class="st2"/>
    <path d="M293 77c-10 0-18 8-18 16 0 5 5 15 20 13l3-2q2-1 1-6v-2l-7 2q-6 0-7-5 1-3 6-4c4 0 11 2 11 10 0 14-22 15-30 14l-31-4a22 22 0 0 0-1 14v2l-3-1-7-2q-16 1-19 16v2l-2-1q-3-2-8-2-11-1-17 8a19 19 0 0 1 24-10c-3-18-9-40-17-53-1 20-18 36-30 39v-1c12-3 28-23 27-43v-1q27-17 91-17l-2-11q0-16 12-25c-37 1-86 26-111 52 0 11-9 34-27 32l-2-1-3-2-6-10q8-3 16 0-5-9-17-8l1-7q8-2 16 1-4-8-15-8l2-7q7-2 13 1-3-6-12-8l1-8q6 0 11 2-3-6-11-8l-2-10c5-2 12-7 10-18-4 3-14 4-19 9h-16c-5 0-20 0-20 7q-24 0-28 11c5 0 23-2 23 6 0 0 7 0 11-6 0 0 8 0 12 7q-17 3-34 2l5-5q-12 4-26 4l26 11-5-6q18 1 37-2v3q-12 3-26 3c1 0 1 8 6 13 6-7 19-12 29-12h2l-1 2c-6 14-10 42-5 61-9-19-5-45 1-60l-10 3c-14 20-33 74-1 93l-1 1c-1 3-7 24-15 33q-3 3-6 1l-13-7h-3l-3-2q-8-2-11 5v1a9 9 0 0 1 10 1l2 4h1-4l-3 1-4-1q-7 2-8 10 3-3 7-3h3q2 3 5 3h7l-2 1-2 1-4 1q-8 3-4 11a9 9 0 0 1 8-6q2 3 5 1l14-4q4-2 9-1l15 2q2 1 4-2h4q5 1 6 5a9 9 0 0 0-11-11l-2-2h-6l-2-3c5-13 16-26 23-31 0 0 8 6 4 14 0 0 14-4 8-14 0 0 26-6 32-10 19-11 32-15 48-15 8 7 30 24 53 19 3 8 2 20-1 28q0 3-4 2l-13-7-3-1-3-2q-7-3-12 5a9 9 0 0 1 11 2q0 4 2 4l1 1-6-1-2 2-4-1q-8 1-8 10 2-3 6-4l4 1 4 3h7-2l-2 2h-4q-7 5-4 12a9 9 0 0 1 8-6q3 2 5 1l14-5h9l13 2q3 1 5-1h3q5 0 6 4a9 9 0 0 0-10-11l-2-1-5-1q-2 0-1-2c3-12 7-30 4-41 0 0 6-3 14 0-7-18-30-10-34-21 35-9 43-23 43-35 0-21-17-25-24-25M114 39q-5 0-6-6h12q0 6-6 6" class="st2"/>
    <path d="M333 77q-2-26-8-47-10 21-24 37l12-2 6-14h1l-10 28 5 5 1 1v-1c4-11 8-28 8-33 1 6-1 16-1 16zm-104 90c-15-4-16-13-8-19q-21 0-43 14c1 8 10 20 27 18 0 0-9 9-18 13h-6l-12-8h-3l-3-2q-7-2-12 4a9 9 0 0 1 10 3l3 4 1 1-6-1-3 1h-3q-8 1-8 10 2-3 6-4l4 1 4 2h7l-2 1-2 1-4 1q-6 4-4 12a9 9 0 0 1 8-6q2 2 5 1l13-4q5-3 11-1l12 2q2 1 5-2h3q4 2 6 5a9 9 0 0 0-10-11l-3-2h-5c13-4 28-16 31-24q8-3 11 4c2-5 3-11-12-14m-120-7q-15-9-15-28-12-4-27-24v-4l8-13v-3l2-3q3-7-4-12a9 9 0 0 1-3 11q-2-1-4 2l-1 1 1-6-1-2v-4q-1-9-10-8 3 1 4 6l-1 4-2 4v7l-1-2-1-2-1-4q-4-6-12-4a9 9 0 0 1 6 8q-2 3-1 5l5 14q2 4-1 10l-4 9q-1 3 1 5l-1 4-6 4q7 3 12-3l1-4 2-2 2-6h4c10 12 38 46 25 53 0 0 13 4 11-10z" class="st2"/>
  </g>
</svg>
